<svg id="Layer_1" data-name="Layer 1" xmlns="http://www.w3.org/2000/svg" width="112" height="42" viewBox="0 0 112 42"><defs><style>.cls-1{fill:#045498;}</style></defs><path class="cls-1" d="M11.15,29.64C4.42,29.64,1,26,1,18.7c0-5.41,2-11,10.06-11,7.19,0,8.93,5.8,8.93,9.47v1.67h-14c0,5.3,1.83,8.71,5.9,8.71a6.83,6.83,0,0,0,5.9-3.24A.93.93,0,0,1,19.05,24l.73.47C19.27,25.67,17.15,29.64,11.15,29.64ZM15.31,17V15.65c0-2.9-.48-6.23-4.28-6.23a4.36,4.36,0,0,0-4.24,3A12.8,12.8,0,0,0,6,17Z"/><path class="cls-1" d="M60.62,29.33a1,1,0,0,1-.88-.6L52.43,10.3a.73.73,0,0,0-.74-.47H49.8V8.16H60.19V9.83H57.66c-.6,0-.59.42-.51.62L62.28,22.7l4.94-12.34c.1-.25,0-.53-.38-.53H64.68V8.16h7.44V9.83H70.27a.79.79,0,0,0-.88.55h0L61.63,29.33Z"/><path class="cls-1" d="M37.44,29.32c-3.75,0-6.53-1.6-6.53-5.74,0-6.52,7-7.54,13.11-7.54V13.42a4,4,0,0,0-1-3.09,5,5,0,0,0-3.32-.9c-3.49,0-3.49,1.35-3.49,1.79,0,.7.44,1.07.44,1.85A1.9,1.9,0,0,1,34.46,15,2.35,2.35,0,0,1,32,12.44c0-3.59,4.19-4.84,8.24-4.84,5.63,0,8.48,2.4,8.48,7.13v12c0,.68.26.68.39.68H51.2v1.66H45a1,1,0,0,1-1-.95v-2C43.14,27.49,41.4,29.32,37.44,29.32ZM44,17.84c-3.8,0-8.08.65-8.08,5.35,0,2.55,1,3.9,3,3.9a4.39,4.39,0,0,0,3.47-1.69A7.38,7.38,0,0,0,44,20.94Z"/><path class="cls-1" d="M102.74,29.59c-6.2,0-10.06-4.13-10.06-10.79S96.54,7.63,102.5,7.63c4.3,0,7.81,2.34,7.81,5.22a2.45,2.45,0,0,1-2.59,2.69c-1.62,0-2-.93-2-1.71,0-.61.44-1.77.44-2.1,0-1.39-1.4-2.28-3.56-2.28-3.75,0-4.91,3.22-4.91,8.82,0,6.39,1.72,9.5,5.25,9.5a6.64,6.64,0,0,0,6-3.48,1,1,0,0,1,1.34-.32l.72.46A8.38,8.38,0,0,1,102.74,29.59Z"/><path class="cls-1" d="M82,29.64c-6.73,0-10.15-3.68-10.15-10.94,0-5.41,2-11,10.06-11,7.19,0,8.93,5.8,8.93,9.47v1.67h-14c0,5.3,1.82,8.71,5.89,8.71a6.83,6.83,0,0,0,5.9-3.24A.94.94,0,0,1,89.9,24l.72.47C90.11,25.67,88,29.64,82,29.64ZM86.19,17V15.65c0-2.9-.48-6.23-4.28-6.23a4.36,4.36,0,0,0-4.24,3,12.59,12.59,0,0,0-.82,4.6Z"/><path class="cls-1" d="M25.83,1h2.31a0,0,0,0,1,0,0V5.62a0,0,0,0,1,0,0H23.52a0,0,0,0,1,0,0V3.31A2.31,2.31,0,0,1,25.83,1Z" transform="translate(22.52 29.14) rotate(-90)"/><path class="cls-1" d="M21,41C18.33,41,16,39.71,16,37.48a2.34,2.34,0,0,1,2.5-2.4,1.7,1.7,0,0,1,1.92,1.62c0,.68-.34,1.12-.34,1.51,0,.64.71,1,1.29,1,1.55,0,2.3-1.24,2.3-3.8,0,0-.1-2.88-.1-3.61V10.55c0-.54-.19-.72-.59-.72h-2.1V8.16h7.31V29.09c0,3.91-.59,6.9-1.75,8.87A5.82,5.82,0,0,1,21,41Z"/></svg>